<svg xmlns="http://www.w3.org/2000/svg" viewBox="0 0 200 60" width="200" height="60">
  <defs>
    <linearGradient id="feather1" x1="0%" y1="0%" x2="100%" y2="100%">
      <stop offset="0%" style="stop-color:#FF6B35"/>
      <stop offset="100%" style="stop-color:#F7C531"/>
    </linearGradient>
    <linearGradient id="feather2" x1="0%" y1="0%" x2="100%" y2="100%">
      <stop offset="0%" style="stop-color:#F7C531"/>
      <stop offset="100%" style="stop-color:#7FB800"/>
    </linearGradient>
    <linearGradient id="feather3" x1="0%" y1="0%" x2="100%" y2="100%">
      <stop offset="0%" style="stop-color:#7FB800"/>
      <stop offset="100%" style="stop-color:#00A6ED"/>
    </linearGradient>
    <linearGradient id="feather4" x1="0%" y1="0%" x2="100%" y2="100%">
      <stop offset="0%" style="stop-color:#00A6ED"/>
      <stop offset="100%" style="stop-color:#5E60CE"/>
    </linearGradient>
    <linearGradient id="feather5" x1="0%" y1="0%" x2="100%" y2="100%">
      <stop offset="0%" style="stop-color:#5E60CE"/>
      <stop offset="100%" style="stop-color:#E040FB"/>
    </linearGradient>
  </defs>
  <ellipse cx="30" cy="45" rx="8" ry="4" fill="url(#feather1)" transform="rotate(-70 30 45)"/>
  <ellipse cx="30" cy="45" rx="10" ry="4" fill="url(#feather2)" transform="rotate(-45 30 45)"/>
  <ellipse cx="30" cy="45" rx="12" ry="4" fill="url(#feather3)" transform="rotate(-20 30 45)"/>
  <ellipse cx="30" cy="45" rx="12" ry="4" fill="url(#feather4)" transform="rotate(10 30 45)"/>
  <ellipse cx="30" cy="45" rx="10" ry="4" fill="url(#feather5)" transform="rotate(40 30 45)"/>
  <circle cx="30" cy="48" r="6" fill="#1a1a2e"/>
  <text x="55" y="38" font-family="Arial, sans-serif" font-size="24" font-weight="bold" fill="#ffffff">Peacock</text>
</svg>