<svg xmlns="http://www.w3.org/2000/svg" width="1080" height="321"><path d="M0 0 C67.32 0 134.64 0 204 0 C202.66864526 7.98812844 201.24909312 15.8600814 199.5234375 23.75878906 C199.16059552 25.43630013 199.16059552 25.43630013 198.79042339 27.14770031 C197.98799039 30.85426795 197.18149807 34.55993992 196.375 38.265625 C195.79766812 40.92696388 195.22121361 43.58849261 194.64472961 46.25001526 C193.41063847 51.94544958 192.17450023 57.64043634 190.93692017 63.33511353 C189.15250279 71.54609585 187.37124455 79.75776092 185.59084427 87.9696151 C182.91076249 100.33094936 180.22890733 112.69189784 177.54573524 125.05256164 C173.63347453 143.07556833 169.72739875 161.09990996 165.82429743 179.12490225 C165.06445509 182.63390572 164.30454794 186.14289516 163.54464722 189.65188599 C162.65943551 193.73955271 161.77422871 197.8272205 160.88903999 201.9148922 C158.12812787 214.66431587 155.3668419 227.41365845 152.60417747 240.16270256 C152.11727438 242.40982121 151.63045667 244.65695836 151.14373207 246.90411568 C150.48056734 249.96582958 149.81710454 253.02747875 149.15356445 256.08911133 C148.96313065 256.96862583 148.77269684 257.84814034 148.57649231 258.75430679 C148.22339807 260.38290894 147.86902531 262.01123461 147.51314735 263.63923073 C147.15557232 265.28427896 146.80412915 266.93066694 146.45741844 268.57803917 C146.28267809 269.39607332 146.10793774 270.21410748 145.92790222 271.05693054 C145.77331134 271.79121119 145.61872046 272.52549185 145.459445 273.28202343 C145 275 145 275 144 276 C141.38237266 276.09780042 138.79114693 276.12994511 136.17308044 276.12025452 C135.34326489 276.12110894 134.51344934 276.12196337 133.65848786 276.12284368 C130.85620681 276.12450103 128.05398459 276.11897297 125.25170898 276.11352539 C123.25158693 276.11324355 121.25146477 276.1134012 119.25134277 276.1139679 C113.80321965 276.11425598 108.35511834 276.10835745 102.9070003 276.10139394 C97.22015158 276.09516226 91.53330242 276.09455675 85.84645081 276.09336853 C75.06940041 276.09025466 64.2923601 276.08204053 53.51531416 276.07201904 C41.24950393 276.06085962 28.98369322 276.05534789 16.71787918 276.05032361 C-8.52141949 276.03985796 -33.76070918 276.02225745 -59 276 C-58.43875458 268.38595528 -57.09632186 261.09056737 -55.45336914 253.64208984 C-55.19212187 252.43630154 -54.9308746 251.23051323 -54.66171074 249.98818588 C-53.94275469 246.67509545 -53.21884527 243.36316053 -52.49277568 240.05162668 C-51.71293666 236.48883871 -50.93968454 232.92462101 -50.16566467 229.36056519 C-48.83302204 223.2284064 -47.49643083 217.09711966 -46.15704346 210.96643066 C-44.05434029 201.34172157 -41.95897432 191.71542334 -39.86474609 182.08886719 C-39.15520768 178.82774654 -38.44560388 175.56664011 -37.73596191 172.30554199 C-37.55950866 171.49465402 -37.38305541 170.68376604 -37.20125508 169.8483057 C-35.94188232 164.06146452 -34.68133758 158.27487933 -33.42028809 152.48840332 C-28.81542003 131.35709967 -24.22742056 110.22221624 -19.65707946 89.08341837 C-19.04244003 86.24072121 -18.42763024 83.39806091 -17.81281871 80.55540097 C-15.3473802 69.15604099 -12.88243547 57.75657448 -10.41970825 46.35662842 C-9.09142649 40.20849595 -7.76154933 34.06071064 -6.43047905 27.9131813 C-5.94541323 25.67146011 -5.46095023 23.42960839 -4.97712898 21.18761826 C-4.3223713 18.15371929 -3.66559544 15.12026423 -3.00830078 12.08691406 C-2.81740907 11.19994528 -2.62651735 10.31297649 -2.42984104 9.39912987 C-2.25456851 8.59229067 -2.07929598 7.78545147 -1.89871216 6.9541626 C-1.6728905 5.90952536 -1.6728905 5.90952536 -1.44250679 4.84378433 C-1.04935117 3.20563055 -0.53274001 1.59822003 0 0 Z " fill="#0171C9" transform="translate(190,18)"></path><path d="M0 0 C0.99 0.33 1.98 0.66 3 1 C3.7734375 2.90625 3.7734375 2.90625 4.375 5.5 C5.67032194 10.72951785 7.10067076 15.89617121 8.625 21.0625 C8.84333496 21.81273438 9.06166992 22.56296875 9.28662109 23.3359375 C10.41421321 27.25431756 10.41421321 27.25431756 12 31 C17.71227412 30.58456188 21.97215511 29.35857912 27.1171875 26.83984375 C29 26 29 26 31 26 C30.39857805 29.4323576 29.52185183 32.47123364 28.1875 35.6875 C27.83171875 36.55503906 27.4759375 37.42257813 27.109375 38.31640625 C26.74328125 39.20199219 26.3771875 40.08757812 26 41 C23.84452625 46.33238469 21.71010424 51.6688016 19.72265625 57.06640625 C19.226766 58.39324774 18.71271526 59.71340087 18.18359375 61.02734375 C16.45204578 65.38549105 15.48631802 69.33134704 15 74 C19.26130498 73.47111463 21.49412367 72.13079075 24.75 69.375 C25.61238281 68.66214844 26.47476563 67.94929688 27.36328125 67.21484375 C28.23339844 66.48394531 29.10351562 65.75304687 30 65 C31.63670874 63.63481898 33.28194745 62.27976691 34.9375 60.9375 C35.64777344 60.34839844 36.35804688 59.75929687 37.08984375 59.15234375 C37.72019531 58.77207031 38.35054687 58.39179688 39 58 C39.99 58.33 40.98 58.66 42 59 C42.99 64.445 42.99 64.445 44 70 C57.365 70.495 57.365 70.495 71 71 C69.78801669 74.02995827 68.63783426 76.86167475 67.1875 79.75 C66.84589844 80.43191406 66.50429688 81.11382812 66.15234375 81.81640625 C64.53272252 84.88545123 62.75345625 87.85801034 60.953125 90.82421875 C59.79681147 93.46383611 59.57414767 95.14864092 60 98 C61.48918456 99.66558104 61.48918456 99.66558104 63.5 100.8125 C64.47453125 101.44091797 64.47453125 101.44091797 65.46875 102.08203125 C65.9740625 102.38496094 66.479375 102.68789062 67 103 C65.97138323 106.35614377 64.81535702 107.11220783 61.75390625 108.97265625 C60.36190585 109.67947598 58.96433458 110.3753908 57.5625 111.0625 C56.02300454 111.84555653 54.48531058 112.63216258 52.94921875 113.421875 C51.73951416 114.04352539 51.73951416 114.04352539 50.50537109 114.67773438 C46.22620418 116.93616041 42.05191427 119.37147824 37.875 121.8125 C37.09455322 122.26826416 36.31410645 122.72402832 35.51000977 123.19360352 C34.76162842 123.63115967 34.01324707 124.06871582 33.2421875 124.51953125 C32.52772461 124.9367041 31.81326172 125.35387695 31.07714844 125.78369141 C29.70263866 126.58855832 28.33083588 127.39806769 26.96191406 128.21240234 C22.2192029 131 22.2192029 131 20 131 C20.99 139.91 20.99 139.91 22 149 C15.5878221 147.35585182 9.52257978 145.51693 3.4140625 142.9765625 C0.32889547 141.72851758 -2.80046058 140.67925383 -5.96875 139.6640625 C-7.74852234 139.08221385 -9.50233997 138.42217694 -11.25 137.75 C-14.28845212 136.92133124 -16.01889522 137.06308135 -19 138 C-21.1120607 140.1120607 -20.68123042 144.48632698 -20.97265625 147.41015625 C-21.1037101 148.67320839 -21.1037101 148.67320839 -21.2374115 149.96177673 C-21.51658057 152.66161023 -21.78960144 155.36202617 -22.0625 158.0625 C-22.25024761 159.8887134 -22.4383934 161.7148859 -22.62695312 163.54101562 C-23.08926372 168.02688166 -23.54605985 172.51327952 -24 177 C-27.01031744 177.93423645 -27.86650268 178.04449911 -31 177 C-31.2143556 170.79797789 -30.44248771 165.29952249 -29.125 159.25 C-28.75639761 157.48727444 -28.38920573 155.72425333 -28.0234375 153.9609375 C-27.84651367 153.11370117 -27.66958984 152.26646484 -27.48730469 151.39355469 C-25.70087581 143.26263586 -25.70087581 143.26263586 -25 135 C-38.86 134.67 -52.72 134.34 -67 134 C-64.81009615 127.43028846 -64.81009615 127.43028846 -62.8125 124.4375 C-60.76251202 121.27853053 -60.76251202 121.27853053 -61.16796875 118.51171875 C-62.13883508 115.58088752 -63.21962215 114.42914989 -65.5 112.375 C-68.7084804 109.33178768 -71.55007562 106.20427481 -74.3125 102.75 C-78.18169912 97.9135011 -82.27139535 93.36042084 -86.54614258 88.88378906 C-90 85.21170868 -90 85.21170868 -90 83 C-90.61875 82.71125 -91.2375 82.4225 -91.875 82.125 C-94 81 -94 81 -96 79 C-96 78.01 -96 77.02 -96 76 C-92.7 75.01 -89.4 74.02 -86 73 C-85.81656908 66.51877412 -86.5199668 60.40111777 -87.5 54 C-87.64308594 53.03449219 -87.78617188 52.06898438 -87.93359375 51.07421875 C-88.28392426 48.71532665 -88.6394935 46.35735455 -89 44 C-84.45959713 44.54484834 -81.18668706 45.7478514 -77.1875 47.9375 C-72.0978087 50.58718948 -67.64447278 52.05925454 -62 53 C-61.57074219 52.12601563 -61.57074219 52.12601563 -61.1328125 51.234375 C-59.53680796 48.08639363 -57.76366481 45.057019 -56 42 C-53 43 -53 43 -51.859375 44.71484375 C-51.49328125 45.44832031 -51.1271875 46.18179688 -50.75 46.9375 C-47.93378966 52.28744366 -44.51590821 57.09366965 -41 62 C-40.34 62.99 -39.68 63.98 -39 65 C-38.01 65 -37.02 65 -36 65 C-35.67 49.16 -35.34 33.32 -35 17 C-31.13130095 18.93434952 -28.36047751 21.08563837 -25.09765625 23.85546875 C-23.03134891 25.20205631 -23.03134891 25.20205631 -20.4921875 24.98828125 C-17.15312729 23.66417117 -16.07039239 21.95640597 -14.0625 19 C-13.38058594 18.01386719 -12.69867188 17.02773437 -11.99609375 16.01171875 C-9.70604884 12.55648466 -7.42855307 9.0941447 -5.2265625 5.58203125 C-4.82179688 5.05996094 -4.41703125 4.53789063 -4 4 C-3.34 4 -2.68 4 -2 4 C-1.34 2.68 -0.68 1.36 0 0 Z " fill="#FBFDFE" transform="translate(273,79)"></path><path d="M0 0 C17.80295226 -0.09277713 35.60582099 -0.16407092 53.4089632 -0.20724869 C61.67612779 -0.22783384 69.94313898 -0.25587653 78.21020508 -0.30175781 C85.41963073 -0.34175008 92.62894524 -0.3674622 99.83847874 -0.37635398 C103.65243657 -0.38154789 107.46607653 -0.39366977 111.27993202 -0.42292023 C114.8775439 -0.45028587 118.47471022 -0.45840294 122.07241631 -0.45243073 C124.00624178 -0.45403757 125.94001991 -0.47544888 127.87371826 -0.49768066 C139.72144163 -0.44229685 149.44460096 2.55759679 158 11 C165.55324258 19.74353956 168.63523126 28.53164122 168.28125 40.05078125 C167.15548075 51.85572268 161.3750427 60.70411646 152.43359375 68.2734375 C143.63491108 74.51584158 134.05909683 75.14645645 123.62011719 75.15771484 C122.58857513 75.16279556 121.55703308 75.16787628 120.49423218 75.17311096 C118.26149078 75.18378575 116.02873888 75.19241718 113.79598236 75.19923019 C110.26637707 75.21103954 106.736893 75.23049402 103.20733643 75.25234985 C93.17472321 75.31392475 83.14212548 75.36814828 73.109375 75.40136719 C66.96860371 75.42224585 60.8280586 75.45748348 54.68741608 75.50212479 C52.34458313 75.51632804 50.00171023 75.52501691 47.65883636 75.52817917 C44.39308244 75.53305716 41.12793625 75.55613082 37.86230469 75.58349609 C36.40046249 75.57898689 36.40046249 75.57898689 34.90908813 75.5743866 C33.58012009 75.59102608 33.58012009 75.59102608 32.2243042 75.60800171 C31.45226025 75.61131186 30.68021629 75.614622 29.88477707 75.61803246 C27.5888374 75.85267178 27.5888374 75.85267178 26 79 C25.62967783 82.29770342 25.62967783 82.29770342 25.5859375 86.07421875 C25.56657135 86.7580513 25.5472052 87.44188385 25.5272522 88.1464386 C25.46756003 90.32666625 25.42111369 92.50694702 25.375 94.6875 C25.33681057 96.1673405 25.29775826 97.647159 25.2578125 99.12695312 C25.16024481 102.75118641 25.08059845 106.37519062 25 110 C16.75 110 8.5 110 0 110 C-0.09254614 105.2158786 -0.17195514 100.43494294 -0.21972656 95.65063477 C-0.23966813 94.02813107 -0.26683174 92.40569758 -0.30175781 90.78344727 C-0.56240977 78.35264889 -0.13515317 67.2614894 8.93359375 57.72265625 C14.86255789 52.77998482 21.8797259 49.88678751 29.58543396 49.86196899 C30.50084961 49.85651566 31.41626526 49.85106232 32.35942078 49.84544373 C33.35641495 49.8444014 34.35340912 49.84335907 35.38061523 49.84228516 C36.96415298 49.83466408 36.96415298 49.83466408 38.5796814 49.82688904 C40.871929 49.81619018 43.16418702 49.8075681 45.45644951 49.80076981 C49.08333171 49.7889821 52.71009477 49.76953045 56.33692932 49.74765015 C66.64881439 49.68602214 76.96068656 49.63194411 87.27270508 49.59863281 C93.57976074 49.57770965 99.88659806 49.54242764 106.19352913 49.49787521 C108.59807837 49.48369913 111.00266623 49.47498917 113.40725517 49.47182083 C116.76840003 49.46692239 120.1289632 49.44379198 123.48999023 49.41650391 C124.98244514 49.42101311 124.98244514 49.42101311 126.50505066 49.4256134 C131.48084222 49.36550203 134.97609458 49.27116255 139 46 C141.97350304 42.92030042 142.91767457 40.2809221 143 36 C141.74010454 31.85021934 140.32635473 28.92031351 136.71212769 26.41252136 C131.20517052 24.31703993 125.95557099 24.56076232 120.10986328 24.56762695 C118.81176224 24.5574353 117.51366119 24.54724365 116.17622375 24.53674316 C112.62914905 24.50922786 109.08223466 24.49989617 105.53506708 24.49388909 C101.8234338 24.4844911 98.1119196 24.45828659 94.40036011 24.43388367 C87.37759729 24.39025409 80.35485762 24.36168543 73.33200061 24.33856028 C65.33436338 24.31148957 57.33684614 24.26757925 49.33929467 24.22227156 C32.89292174 24.12947603 16.44653156 24.05836936 0 24 C0 16.08 0 8.16 0 0 Z " fill="#FCFCFC" transform="translate(451,175)"></path><path d="M0 0 C12.60487026 -0.06965442 25.20969438 -0.12288967 37.81471825 -0.15543652 C43.66837765 -0.17106105 49.52190491 -0.19224068 55.37548828 -0.22631836 C61.02946895 -0.25902628 66.68332288 -0.27687716 72.3373909 -0.28463173 C74.48944721 -0.29015473 76.64149695 -0.30093965 78.79349899 -0.31719017 C81.81870003 -0.3391163 84.84338404 -0.34196058 87.86865234 -0.34057617 C88.74907196 -0.351362 89.62949158 -0.36214783 90.53659058 -0.3732605 C101.60557412 -0.31880914 109.79454539 3.00561527 117.72265625 10.6640625 C124.05777998 17.48171408 125.47431714 24.4689371 125.1875 33.5 C125.16719727 34.73363281 125.16719727 34.73363281 125.14648438 35.9921875 C125.11155016 37.99508221 125.05776057 39.99763356 125 42 C124.22914063 42.06058594 123.45828125 42.12117188 122.6640625 42.18359375 C121.66117188 42.26738281 120.65828125 42.35117188 119.625 42.4375 C118.62726563 42.51871094 117.62953125 42.59992188 116.6015625 42.68359375 C114.02072387 42.84965626 114.02072387 42.84965626 112 44 C112.9384375 44.42023438 113.876875 44.84046875 114.84375 45.2734375 C119.03090775 47.53167988 122.51818789 49.85244192 125 54 C126.05762613 58.35065561 126.16752337 62.53567192 126.125 67 C126.11243164 68.67328369 126.11243164 68.67328369 126.09960938 70.38037109 C125.63375155 80.36535552 122.43991425 88.59233283 115.03125 95.46484375 C107.25551737 101.34150322 99.91870461 103.14809614 90.36352539 103.16113281 C89.0579644 103.16858017 89.0579644 103.16858017 87.72602844 103.17617798 C84.84989631 103.1907704 81.9738193 103.19759589 79.09765625 103.203125 C77.09752908 103.20887779 75.09740192 103.21463551 73.09727478 103.22039795 C68.90509789 103.23089888 64.71294014 103.23674784 60.52075195 103.24023438 C55.14940284 103.24572458 49.77830652 103.26976771 44.40703678 103.29820633 C40.27635456 103.3168276 36.14573339 103.32203799 32.01501274 103.32357025 C30.0346685 103.32659723 28.05432534 103.33462728 26.07402229 103.34775543 C23.30444168 103.36480906 20.53548095 103.36293763 17.76586914 103.35644531 C16.94856323 103.3656601 16.13125732 103.37487488 15.28918457 103.3843689 C9.27607767 103.34021095 6.19861522 102.02810695 1.71588135 97.89302063 C-0.71404765 93.79609707 -0.53143627 90.39196344 -0.45410156 85.71166992 C-0.45468567 84.78435059 -0.45526978 83.85703125 -0.45587158 82.90161133 C-0.45309045 79.84417971 -0.42199663 76.78772954 -0.390625 73.73046875 C-0.38316273 71.60769686 -0.37746973 69.48491808 -0.37347412 67.36213684 C-0.35821681 61.78065909 -0.31893376 56.19959907 -0.2746582 50.61828613 C-0.23370784 44.92071178 -0.21546358 39.22306979 -0.1953125 33.52539062 C-0.15243993 22.35007709 -0.0841871 11.17507331 0 0 Z M25 24 C25 42.48 25 60.96 25 80 C36.963846 80.08728264 36.963846 80.08728264 48.92773438 80.14648438 C53.8086121 80.16440601 58.68932072 80.1855894 63.57006836 80.22631836 C67.50581018 80.25895524 71.4413706 80.2768621 75.37723732 80.28463173 C76.87752957 80.2901675 78.37781209 80.30097761 79.87802696 80.31719017 C81.98229672 80.33902272 84.08582044 80.3419646 86.19018555 80.34057617 C87.38709518 80.34723801 88.58400482 80.35389984 89.81718445 80.36076355 C93.35000065 79.96032837 95.18278289 79.13427079 98 77 C100.07755213 73.88367181 100.2557719 73.15328637 100.29052734 69.60791016 C100.30328705 68.72334137 100.31604675 67.83877258 100.32919312 66.92739868 C100.33141876 65.97424774 100.33364441 65.0210968 100.3359375 64.0390625 C100.3425943 63.05634369 100.3492511 62.07362488 100.35610962 61.06112671 C100.36623751 58.9815254 100.3709266 56.90189157 100.37060547 54.82226562 C100.37497391 51.64398457 100.41127942 48.46709736 100.44921875 45.2890625 C100.45508784 43.26823391 100.45905661 41.24739873 100.4609375 39.2265625 C100.47530853 38.27746002 100.48967957 37.32835754 100.50448608 36.35049438 C100.4952562 35.01418472 100.4952562 35.01418472 100.48583984 33.65087891 C100.48868988 32.87161041 100.49153992 32.09234192 100.49447632 31.28945923 C99.7697811 27.93407074 98.50141205 26.33443227 96 24 C92.74081032 23.27630194 92.74081032 23.27630194 89.02832031 23.43237305 C88.3352327 23.43164291 87.64214508 23.43091278 86.92805481 23.43016052 C84.64394034 23.43363583 82.36188177 23.4724884 80.078125 23.51171875 C78.49201573 23.52104722 76.90589202 23.52816318 75.31976318 23.53315735 C71.15024866 23.55222486 66.98160859 23.60132237 62.81243896 23.65667725 C57.8073992 23.71688126 52.80206661 23.73978727 47.79676819 23.76894379 C40.19723777 23.81738887 32.59962499 23.91320225 25 24 Z " fill="#FDFDFD" transform="translate(824,37)"></path><path d="M0 0 C0.67702469 -0.0049649 1.35404938 -0.00992981 2.05158997 -0.01504517 C4.28684518 -0.02962295 6.52202931 -0.0364633 8.75732422 -0.04199219 C10.31948853 -0.04774955 11.88165283 -0.0535072 13.44381714 -0.05926514 C16.72052335 -0.06976428 19.99720512 -0.07561329 23.27392578 -0.07910156 C27.44982617 -0.08456806 31.6253975 -0.10856085 35.80119514 -0.13707352 C39.03049627 -0.15580715 42.25972005 -0.16091128 45.48907089 -0.16243744 C47.02708601 -0.16544302 48.56510046 -0.1733998 50.10306168 -0.18662262 C62.49769086 -0.28553507 73.55022317 0.62990318 83.18701172 9.16113281 C88.06562839 15.08442115 91.40815778 21.01976818 91.4934082 28.80249023 C91.5093956 29.91101852 91.525383 31.01954681 91.54185486 32.16166687 C91.54721756 33.35129532 91.55258026 34.54092377 91.55810547 35.76660156 C91.56713394 37.00098465 91.57616241 38.23536774 91.58546448 39.50715637 C91.59996428 42.11875994 91.60885303 44.73039981 91.61254883 47.34204102 C91.61896935 51.31670953 91.67358821 55.29029847 91.72412109 59.26464844 C91.73358904 61.8069586 91.7408223 64.34927827 91.74560547 66.89160156 C91.76513779 68.07110886 91.7846701 69.25061615 91.80479431 70.46586609 C91.75574896 79.53852527 89.68260158 86.14120447 83.68701172 93.03613281 C82.44951172 94.08800781 82.44951172 94.08800781 81.18701172 95.16113281 C80.48576172 95.84175781 79.78451172 96.52238281 79.06201172 97.22363281 C69.61832413 103.58785706 59.63900642 103.74603736 48.67919922 103.65722656 C47.10222304 103.65738193 45.52524648 103.65887715 43.94827271 103.66163635 C40.66195555 103.66301228 37.37607912 103.65059631 34.08984375 103.62768555 C29.89939224 103.59925602 25.70966895 103.60206174 21.51916313 103.61477566 C18.2692758 103.62176274 15.01955385 103.61390996 11.76968765 103.60151863 C10.2252885 103.5970368 8.68087141 103.59663839 7.13647079 103.60058403 C-5.18059514 103.61733315 -15.06374328 102.29468373 -24.81298828 94.16113281 C-32.72460754 85.83583412 -34.27663976 77.26379798 -34.24658203 66.13769531 C-34.25182388 64.99634125 -34.25706573 63.85498718 -34.26246643 62.67904663 C-34.26886683 60.27366954 -34.26757546 57.86826106 -34.2590332 55.46289062 C-34.25053083 51.80443939 -34.27930302 48.14755485 -34.31103516 44.48925781 C-34.31264769 42.14290411 -34.31206863 39.79654767 -34.30908203 37.45019531 C-34.32031601 36.3675943 -34.33154999 35.28499329 -34.34312439 34.16958618 C-34.25462605 24.41006765 -31.77665278 16.21934669 -25.01220703 8.98535156 C-17.62433028 2.85721934 -9.43250733 0.0526934 0 0 Z M-6.65220642 26.00697327 C-8.33728797 29.1341194 -8.94016685 31.67130116 -8.97412109 35.17016602 C-8.98372864 35.9714241 -8.99333618 36.77268219 -9.00323486 37.59822083 C-9.00748474 38.46073959 -9.01173462 39.32325836 -9.01611328 40.21191406 C-9.02181335 41.10347702 -9.02751343 41.99503998 -9.03338623 42.91362 C-9.04283178 44.80071833 -9.04936845 46.68783313 -9.05322266 48.57495117 C-9.06291635 51.45228102 -9.09393883 54.32889283 -9.12548828 57.20605469 C-9.13201986 59.04133691 -9.13726972 60.87662424 -9.14111328 62.71191406 C-9.15346008 63.56836014 -9.16580688 64.42480621 -9.17852783 65.3072052 C-9.16001744 70.30758886 -8.72280041 73.89705041 -5.81298828 78.16113281 C-2.48642013 80.36007414 0.33891549 80.41413409 4.26904297 80.41992188 C6.11115356 80.42937836 6.11115356 80.42937836 7.99047852 80.43902588 C9.32682438 80.43544596 10.66316893 80.43134396 11.99951172 80.42675781 C13.37426828 80.42810569 14.74902437 80.43004725 16.1237793 80.43255615 C19.00199939 80.43550164 21.88009516 80.43122838 24.75830078 80.421875 C28.44374996 80.41048069 32.12890782 80.41704326 35.81434631 80.42901993 C38.65224392 80.43625414 41.49007271 80.43394345 44.32797241 80.42876434 C45.68671707 80.42743216 47.04546801 80.42906044 48.40420532 80.43372345 C50.30446245 80.43881403 52.20474156 80.42967676 54.10498047 80.41992188 C55.18545654 80.41833069 56.26593262 80.4167395 57.37915039 80.4151001 C60.2474017 80.15567062 61.84494508 79.81724297 64.18701172 78.16113281 C66.0820967 75.32521901 66.44440821 73.02552011 66.47753906 69.65551758 C66.49029877 68.77102432 66.50305847 67.88653107 66.51620483 66.97523499 C66.51843048 66.02724533 66.52065613 65.07925568 66.52294922 64.10253906 C66.52960602 63.1212352 66.53626282 62.13993134 66.54312134 61.12889099 C66.55323814 59.05526604 66.55793866 56.98160859 66.55761719 54.90795898 C66.56199113 51.73854901 66.59832358 48.57053092 66.63623047 45.40136719 C66.64209868 43.3850959 66.64606804 41.36881801 66.64794922 39.35253906 C66.66232025 38.40657364 66.67669128 37.46060822 66.6914978 36.48597717 C66.68226791 35.15450905 66.68226791 35.15450905 66.67285156 33.79614258 C66.6757016 33.01989029 66.67855164 32.243638 66.68148804 31.44386292 C65.95939912 28.11036839 64.65459936 26.49423179 62.18701172 24.16113281 C59.11461875 23.4121866 59.11461875 23.4121866 55.63012695 23.5300293 C54.65624527 23.51929634 54.65624527 23.51929634 53.66268921 23.50834656 C51.52293907 23.49147761 49.38528954 23.51084475 47.24560547 23.53222656 C45.75635098 23.53139777 44.26709658 23.52893802 42.77784729 23.5249176 C39.65980428 23.52206103 36.54248019 23.53674736 33.42456055 23.56420898 C29.42706762 23.5983225 25.43085756 23.59226317 21.43330288 23.57354641 C18.3594543 23.56298139 15.2859046 23.57190892 12.21208382 23.58693123 C10.73808746 23.59211526 9.26405993 23.59162852 7.79006767 23.58538628 C5.73086201 23.57993834 3.67349774 23.60028885 1.61450195 23.62768555 C0.4429808 23.63388412 -0.72854034 23.6400827 -1.93556213 23.64646912 C-4.89662289 23.89248928 -4.89662289 23.89248928 -6.65220642 26.00697327 Z " fill="#FCFCFC" transform="translate(583.81298828125,36.8388671875)"></path><path d="M0 0 C0.55131592 0.58386475 1.10263184 1.16772949 1.6706543 1.76928711 C2.59998779 2.7305249 2.59998779 2.7305249 3.5480957 3.71118164 C4.19053223 4.39937988 4.83296875 5.08757813 5.49487305 5.79663086 C6.84071881 7.19290947 8.18835219 8.58746742 9.5378418 9.98022461 C10.13749756 10.61114014 10.73715332 11.24205566 11.35498047 11.89208984 C13.80152854 14.35824952 16.40969107 16.60308315 19.06518555 18.83959961 C24.33366737 23.554016 29.21905008 28.70271352 34.18237305 33.73413086 C37.23225452 32.38041391 39.23272802 30.89262651 41.50708008 28.46191406 C42.13518585 27.79815262 42.76329163 27.13439117 43.41043091 26.45051575 C44.08024994 25.73586655 44.75006897 25.02121735 45.44018555 24.28491211 C46.88409718 22.7816122 48.32945579 21.27970101 49.77612305 19.77905273 C52.04787442 17.41469212 54.31002629 15.04379119 56.54858398 12.64794922 C58.71634551 10.33450993 60.91782909 8.05808 63.12768555 5.78491211 C63.78535919 5.06419022 64.44303284 4.34346832 65.12063599 3.60090637 C69.78042002 -1.11135254 69.78042002 -1.11135254 73.75994873 -1.54995728 C81.61700879 -0.92793626 87.12889776 2.31491864 92.49487305 7.98413086 C99.62175969 17.32734055 98.57730489 28.1964199 98.4753418 39.33178711 C98.46973867 41.13496038 98.46547196 42.93813826 98.46247864 44.74131775 C98.45108628 49.46122091 98.42166806 54.18084213 98.3883667 58.90063477 C98.35754419 63.72725614 98.34394739 68.55392357 98.32885742 73.38061523 C98.29679243 82.83191021 98.24566477 92.28299698 98.18237305 101.73413086 C96.76893641 101.60871938 95.3563174 101.47407692 93.9440918 101.33569336 C92.76399536 101.22475342 92.76399536 101.22475342 91.56005859 101.11157227 C85.25048284 100.10997004 80.37151667 96.8272495 76.5292511 91.78855896 C72.11865647 85.06096433 71.72274738 77.61690911 71.6706543 69.79272461 C71.65270309 68.78444107 71.63475189 67.77615753 71.61625671 66.73731995 C71.56251176 63.54879819 71.52837332 60.360423 71.49487305 57.17163086 C71.46166835 54.99648041 71.42717582 52.82134921 71.39135742 50.64624023 C71.30680642 45.34233536 71.23830663 40.03841064 71.18237305 34.73413086 C70.49199951 35.44545166 69.80162598 36.15677246 69.09033203 36.88964844 C66.5082958 39.54448607 63.91271461 42.18573463 61.31298828 44.82324219 C60.19307928 45.96317552 59.07679758 47.10668494 57.96435547 48.25390625 C56.35781163 49.90937306 54.73834127 51.55122396 53.1159668 53.19116211 C52.62712509 53.70064896 52.13828339 54.2101358 51.6346283 54.73506165 C46.81873546 59.55398592 41.64731799 62.15208099 34.74487305 62.23413086 C25.11307156 61.89294988 20.0368938 55.84391191 13.6394043 49.23022461 C10.90724816 46.45463197 8.04368071 43.91211065 5.0690918 41.40209961 C2.66905905 39.28033153 0.44057472 37.00529341 -1.81762695 34.73413086 C-1.82127258 35.3302417 -1.82491821 35.92635254 -1.82867432 36.54052734 C-1.87063352 42.77065376 -1.94007267 49.00005267 -2.02514648 55.22973633 C-2.05329227 57.55160225 -2.07453845 59.87356285 -2.08862305 62.19555664 C-2.11014051 65.54223885 -2.1568382 68.88779034 -2.20825195 72.23413086 C-2.21009491 73.77991821 -2.21009491 73.77991821 -2.2119751 75.35693359 C-2.36169481 82.80101608 -3.84019027 88.19998858 -8.67700195 93.94116211 C-14.58846857 98.96102323 -19.83063462 101.96863668 -27.81762695 101.73413086 C-27.91052661 91.06778649 -27.9814931 80.40153923 -28.02487564 69.73487186 C-28.04570277 64.78127255 -28.07393098 59.82795113 -28.11938477 54.87451172 C-28.16301687 50.08935777 -28.18680068 45.30447023 -28.19713593 40.51913261 C-28.20449622 38.69836677 -28.21886896 36.87761463 -28.24054718 35.05696297 C-28.4490399 16.81218116 -28.4490399 16.81218116 -23.81762695 9.73413086 C-23.26075195 8.82663086 -22.70387695 7.91913086 -22.13012695 6.98413086 C-17.24691694 2.2328995 -6.73021755 -4.68719651 0 0 Z " fill="#FCFCFC" transform="translate(432.817626953125,38.265869140625)"></path><path d="M0 0 C7.8795979 1.12565684 7.8795979 1.12565684 12.0703125 2.7578125 C13.0308252 3.12865967 13.99133789 3.49950684 14.98095703 3.8815918 C16.01849121 4.2919165 17.05602539 4.70224121 18.125 5.125 C19.78378174 5.77239136 19.78378174 5.77239136 21.47607422 6.43286133 C31.71874668 10.45114053 41.92390916 14.56501593 52.125 18.6875 C52.89620178 18.99874817 53.66740356 19.30999634 54.4619751 19.63067627 C62.60045979 22.91974305 70.71495977 26.26111817 78.7734375 29.7421875 C79.42160431 30.01902878 80.06977112 30.29587006 80.73757935 30.58110046 C86.38680707 33.04663314 91.25562287 36.08482031 96 40 C96.70511719 40.56976563 97.41023437 41.13953125 98.13671875 41.7265625 C105.86468237 48.64492993 110.97337999 58.30995194 112.125 68.625 C112.41778361 82.02798288 107.31608786 92.56957765 98.25 102.25 C84.42043357 115.23339793 64.75416259 121.47653191 47.4375 128.4375 C46.51467224 128.80962616 45.59184448 129.18175232 44.64105225 129.56515503 C34.01394564 133.84792856 23.38149559 138.11319595 12.625 142.0625 C11.34580688 142.53610962 11.34580688 142.53610962 10.04077148 143.01928711 C6.46948731 144.29762525 3.83573002 145 0 145 C0 137.08 0 129.16 0 121 C11.85519873 115.98078599 23.83821297 111.28854784 35.8125 106.5625 C37.94340246 105.72081218 40.07426213 104.87901605 42.20507812 104.03710938 C43.24444016 103.62647247 44.28380219 103.21583557 45.35466003 102.79275513 C48.39417054 101.59125471 51.433073 100.38822631 54.47192383 99.18505859 C57.88004873 97.83595966 61.29086985 96.49434199 64.70581055 95.16259766 C66.05388486 94.63316645 67.40194895 94.10370919 68.75 93.57421875 C69.87535156 93.13553467 71.00070312 92.69685059 72.16015625 92.24487305 C78.34606703 89.53321907 81.67434193 86.30188385 84.5 80.1875 C86.70470864 73.89509121 86.05724442 68.99552584 83.875 62.8125 C78.93139867 55.39709801 72.03824967 52.36887882 63.9375 49.25 C62.81802979 48.8060791 61.69855957 48.3621582 60.54516602 47.90478516 C57.18720071 46.57449189 53.82167128 45.26421028 50.45507812 43.95593262 C45.6539791 42.08653094 40.85891327 40.20169591 36.0625 38.3203125 C29.76578112 35.85145455 23.46798867 33.38545749 17.16577148 30.93066406 C16.17903442 30.54611053 15.19229736 30.16155701 14.17565918 29.76535034 C12.30081672 29.0349744 10.4256663 28.30538832 8.5501709 27.57669067 C7.71562378 27.25151459 6.88107666 26.9263385 6.02124023 26.59130859 C5.28993393 26.30693939 4.55862762 26.02257019 3.80516052 25.72958374 C2 25 2 25 0 24 C0 16.08 0 8.16 0 0 Z " fill="#FEFEFE" transform="translate(818,158)"></path><path d="M0 0 C1.12067871 0.0028299 2.24135742 0.00565979 3.39599609 0.00857544 C6.95160911 0.01970999 10.50696398 0.04480236 14.0625 0.0703125 C16.48306926 0.08035098 18.9036425 0.08947531 21.32421875 0.09765625 C27.23715702 0.11791992 33.14954182 0.15708217 39.0625 0.1953125 C39.0625 8.1153125 39.0625 16.0353125 39.0625 24.1953125 C35.93007813 24.23269531 32.79765625 24.27007812 29.5703125 24.30859375 C26.50872138 24.35491432 23.44724743 24.40610962 20.38574219 24.45776367 C18.2715579 24.49084824 16.15728877 24.51893046 14.04296875 24.54174805 C10.98921841 24.57559858 7.93623406 24.62792795 4.8828125 24.68359375 C3.48375168 24.69317863 3.48375168 24.69317863 2.056427 24.70295715 C-9.53032448 24.95773995 -18.09655134 28.19211527 -26.1875 36.5078125 C-31.78809774 45.10873045 -32.53731224 52.44285822 -32.546875 62.63671875 C-32.56188341 64.01393044 -32.57861608 65.39112432 -32.59698486 66.76829529 C-32.64037325 70.36358542 -32.66059327 73.95863292 -32.67572021 77.55413818 C-32.69539529 81.23480409 -32.73735292 84.91521182 -32.77734375 88.59570312 C-32.85233643 95.79553568 -32.90075 102.99516457 -32.9375 110.1953125 C-41.1875 110.1953125 -49.4375 110.1953125 -57.9375 110.1953125 C-58.00578332 102.61411301 -58.06060487 95.03303128 -58.09293652 87.45159721 C-58.10846871 83.92969034 -58.12947314 80.40800811 -58.16381836 76.88623047 C-58.20321689 72.81996741 -58.21731175 68.75393334 -58.23046875 64.6875 C-58.24595261 63.44733124 -58.26143646 62.20716248 -58.27738953 60.92941284 C-58.28061768 43.83095127 -54.3127558 28.97489867 -42.28515625 16.4453125 C-29.95488699 4.62794961 -16.92558845 -0.16263619 0 0 Z " fill="#0170CA" transform="translate(756.9375,174.8046875)"></path><path d="M0 0 C8.25 0 16.5 0 25 0 C25 36.3 25 72.6 25 110 C16.75 110 8.5 110 0 110 C0 73.7 0 37.4 0 0 Z " fill="#FDFDFD" transform="translate(405,175)"></path><path d="M0 0 C8.58 0 17.16 0 26 0 C26.09039408 12.15244152 26.16376988 24.30465949 26.20724869 36.45736122 C26.22811706 42.10044477 26.25642148 47.74328624 26.30175781 53.38623047 C26.34524161 58.83272046 26.36914275 64.2789777 26.37950897 69.7256279 C26.38689573 71.80285684 26.40132037 73.88007314 26.42292023 75.95720291 C26.45198749 78.86839506 26.45595456 81.77862733 26.45410156 84.68994141 C26.47567322 85.97603806 26.47567322 85.97603806 26.49768066 87.28811646 C26.46060503 92.67671388 25.57340377 95.71878998 22 100 C19.0558634 102.38713778 17.34898522 102.96192889 13.5625 103.375 C8.78001219 102.87158023 5.50122282 101.60475543 2.1875 98.0625 C-0.51962455 93.36065209 -0.13599178 88.38641676 -0.11352539 83.10058594 C-0.11367142 82.20267334 -0.11381744 81.30476074 -0.1139679 80.37963867 C-0.11327176 77.41452613 -0.10549329 74.44947656 -0.09765625 71.484375 C-0.09579101 69.42742955 -0.09436761 67.37048365 -0.09336853 65.3135376 C-0.0895517 59.90155815 -0.07972851 54.48960556 -0.06866455 49.07763672 C-0.05843252 43.55436568 -0.05386707 38.03109029 -0.04882812 32.5078125 C-0.03810551 21.6718613 -0.02051543 10.83593709 0 0 Z " fill="#FBFBFB" transform="translate(739,37)"></path><path d="M0 0 C8.58 0 17.16 0 26 0 C26.045201 11.76129916 26.08188753 23.52254054 26.10362434 35.28390694 C26.11405739 40.74529373 26.12820795 46.20661796 26.15087891 51.66796875 C26.1726242 56.93937672 26.18457224 62.21072455 26.18975449 67.48217392 C26.1934472 69.49238914 26.20065812 71.5026011 26.21146011 73.51279068 C26.22599733 76.33037659 26.22797699 79.1477146 26.22705078 81.96533203 C26.23424133 82.79467758 26.24143188 83.62402313 26.24884033 84.47850037 C26.227404 90.51282833 25.65322356 95.09243435 21.5625 99.8125 C18.48830684 102.43681123 16.68955645 102.93494751 12.6875 103.3125 C8.26732079 102.93790854 6.37270719 101.83614013 3 99 C-0.61814974 94.46303897 -0.41001956 90.34687734 -0.34057617 84.8034668 C-0.34101425 83.88590103 -0.34145233 82.96833527 -0.34190369 82.02296448 C-0.33981812 78.99816412 -0.31649776 75.97392197 -0.29296875 72.94921875 C-0.28737198 70.84886477 -0.28310226 68.74850688 -0.28010559 66.64814758 C-0.26866326 61.12593736 -0.23920114 55.60396466 -0.20599365 50.08184814 C-0.17527971 44.44457207 -0.16159741 38.80725754 -0.14648438 33.16992188 C-0.11433097 22.11316021 -0.06156784 11.05663704 0 0 Z " fill="#FBFBFB" transform="translate(784,37)"></path><path d="M0 0 C3.88417377 2.09147818 6.85342831 4.13002992 9 8 C9.43320192 11.05850476 9.37863983 14.09063539 9.34057617 17.17480469 C9.34123329 18.56556465 9.34123329 18.56556465 9.34190369 19.98442078 C9.33981472 23.04712019 9.31647828 26.10927129 9.29296875 29.171875 C9.28737319 31.2960785 9.2831029 33.42028587 9.28010559 35.54449463 C9.26865373 41.13412168 9.23918341 46.7235147 9.20599365 52.31304932 C9.17530025 58.01726109 9.1616018 63.72151069 9.14648438 69.42578125 C9.11431416 80.61730684 9.06154325 91.80859734 9 103 C0.75 103 -7.5 103 -16 103 C-16.13564612 90.73446028 -16.24568506 78.46942009 -16.31087303 66.20329952 C-16.34216277 60.50740084 -16.38459372 54.81204268 -16.45263672 49.11645508 C-16.51791158 43.61805993 -16.55372377 38.12018411 -16.56926346 32.62143135 C-16.58033508 30.52544544 -16.60195592 28.42948741 -16.63438034 26.33372307 C-16.67805118 23.39365489 -16.68392959 20.45572209 -16.68115234 17.51538086 C-16.702724 16.65222763 -16.72429565 15.7890744 -16.746521 14.89976501 C-16.68946243 9.30342715 -15.40717517 6.38920806 -11.58152199 2.29438114 C-8.08514756 -0.56719218 -4.30947103 -0.36520941 0 0 Z " fill="#FCFCFC" transform="translate(711,37)"></path><path d="M0 0 C29.7 0 59.4 0 90 0 C87.20018527 3.49976841 85.55555495 5.50137788 82.25 8.0625 C78.60520916 11.055103 76.89547269 14.01360444 74.74023438 18.17285156 C72.23798048 21.97474696 70.97434166 23.69842138 66.58422852 25.05725098 C62.30797649 25.39017994 58.18459345 25.35334385 53.90625 25.171875 C52.34833342 25.149462 50.7903316 25.13239527 49.2322998 25.12042236 C45.15289205 25.07483814 41.0787031 24.95721253 37.00134277 24.82397461 C32.8323427 24.70068077 28.66248944 24.64630033 24.4921875 24.5859375 C16.32547541 24.45765707 8.16399022 24.24681831 0 24 C0 16.08 0 8.16 0 0 Z " fill="#0071CA" transform="translate(627,175)"></path><path d="M0 0 C2.97 0.495 2.97 0.495 6 1 C5.87447754 1.54060059 5.74895508 2.08120117 5.61962891 2.63818359 C3.89754208 10.56692455 3.13061809 18.56059883 2.375 26.625 C2.24004973 28.02478463 2.10463629 29.42452468 1.96875 30.82421875 C1.64129304 34.21573727 1.31849344 37.60763001 1 41 C-2.01031744 41.93423645 -2.86650268 42.04449911 -6 41 C-6.21435445 34.79801122 -5.44260545 29.29948217 -4.125 23.25 C-3.75636544 21.48858347 -3.38917372 19.72686436 -3.0234375 17.96484375 C-2.84651367 17.11776855 -2.66958984 16.27069336 -2.48730469 15.39794922 C-0.74173623 7.76258416 -0.74173623 7.76258416 0 0 Z " fill="#EFF7FC" transform="translate(248,215)"></path><path d="M0 0 C5.64165361 -0.07410727 11.28302447 -0.12858167 16.92504883 -0.16479492 C18.84469538 -0.1798898 20.7643074 -0.20036773 22.68383789 -0.22631836 C25.44165564 -0.26267109 28.1990178 -0.27971912 30.95703125 -0.29296875 C31.81649857 -0.30845261 32.67596588 -0.32393646 33.56147766 -0.33988953 C34.36208115 -0.34011612 35.16268463 -0.34034271 35.98754883 -0.34057617 C37.04344963 -0.35056892 37.04344963 -0.35056892 38.12068176 -0.36076355 C40.58238793 0.11179817 41.48567952 1.03929973 43 3 C42.99609375 5.21484375 42.99609375 5.21484375 42.4375 7.9375 C42.23125 8.99324219 42.025 10.04898438 41.8125 11.13671875 C41.544375 12.41160156 41.27625 13.68648437 41 15 C40.48655608 17.53254141 39.97817413 20.06605987 39.47094727 22.59985352 C39.1223173 24.3318344 38.76884261 26.06284902 38.40991211 27.79272461 C37.37148448 32.85199997 36.57365994 37.86663062 36 43 C36.99 43.33 37.98 43.66 39 44 C37.35 43.67 35.7 43.34 34 43 C35.43642612 19.56357388 35.43642612 19.56357388 38 17 C38.07205511 15.31391034 38.08386068 13.62499341 38.0625 11.9375 C38.05347656 11.01839844 38.04445312 10.09929687 38.03515625 9.15234375 C38.02355469 8.44207031 38.01195312 7.73179687 38 7 C38.99 7 39.98 7 41 7 C41 5.35 41 3.7 41 2 C20.705 1.505 20.705 1.505 0 1 C0 0.67 0 0.34 0 0 Z " fill="#4286BF" transform="translate(206,213)"></path><path d="M0 0 C8.57142857 0.85714286 8.57142857 0.85714286 12 3 C8.59068103 4.13643966 7.99664544 3.86747764 4.8125 2.5625 C4.09707031 2.27503906 3.38164062 1.98757812 2.64453125 1.69140625 C1.83048828 1.34916016 1.83048828 1.34916016 1 1 C1.28875 1.86625 1.5775 2.7325 1.875 3.625 C4.29987691 12.12938973 5.35304946 21.17376344 5 30 C3.54293274 30.50367757 2.08429904 31.00282556 0.625 31.5 C-0.59316406 31.91765625 -0.59316406 31.91765625 -1.8359375 32.34375 C-4 33 -4 33 -6 33 C-6.33 33.66 -6.66 34.32 -7 35 C-6.67 33.35 -6.34 31.7 -6 30 C-2.04 29.505 -2.04 29.505 2 29 C1.45433814 20.03901494 1.45433814 20.03901494 0.4375 11.125 C-0.08902238 7.36412585 -0.066582 3.79517394 0 0 Z " fill="#1B76B8" transform="translate(183,122)"></path><path d="M0 0 C0.66 0.33 1.32 0.66 2 1 C1.67 16.84 1.34 32.68 1 49 C-0.98 49.495 -0.98 49.495 -3 50 C-5.475 46.535 -5.475 46.535 -8 43 C-7.01 42.505 -7.01 42.505 -6 42 C-6 42.66 -6 43.32 -6 44 C-4.515 43.505 -4.515 43.505 -3 43 C-3 44.65 -3 46.3 -3 48 C-2.01 48 -1.02 48 0 48 C0 32.16 0 16.32 0 0 Z " fill="#488EC4" transform="translate(237,95)"></path><path d="M0 0 C2.97 0.495 2.97 0.495 6 1 C5.86722656 1.60585937 5.73445312 2.21171875 5.59765625 2.8359375 C4.32432636 8.87728368 3.49744596 14.84737892 3 21 C2.67 21 2.34 21 2 21 C1.67 18.69 1.34 16.38 1 14 C0.01 14.495 0.01 14.495 -1 15 C-1.09038099 9.84828377 -0.84681133 5.08086796 0 0 Z " fill="#DEF0FC" transform="translate(248,215)"></path><path d="M0 0 C1.2065625 0.0309375 1.2065625 0.0309375 2.4375 0.0625 C3.4275 2.0425 4.4175 4.0225 5.4375 6.0625 C2.94388429 4.85868552 0.75606917 3.60821278 -1.5625 2.0625 C-1.5625 10.3125 -1.5625 18.5625 -1.5625 27.0625 C-1.8925 27.0625 -2.2225 27.0625 -2.5625 27.0625 C-4.01663787 7.82114001 -4.01663787 7.82114001 -3.5625 1.0625 C-2.5625 0.0625 -2.5625 0.0625 0 0 Z " fill="#1E77B9" transform="translate(238.5625,92.9375)"></path><path d="M0 0 C0.99 0.33 1.98 0.66 3 1 C2.67 1.66 2.34 2.32 2 3 C1.88232528 4.4494793 1.82310732 5.90393996 1.79467773 7.35791016 C1.77473251 8.25869293 1.75478729 9.15947571 1.73423767 10.08755493 C1.71752518 11.06155243 1.70081268 12.03554993 1.68359375 13.0390625 C1.66281265 14.03505463 1.64203156 15.03104675 1.62062073 16.05722046 C1.55510958 19.24640854 1.49623296 22.43568058 1.4375 25.625 C1.39431627 27.78386293 1.35070203 29.9427173 1.30664062 32.1015625 C1.19942664 37.4009523 1.09766315 42.70042606 1 48 C0.67 48 0.34 48 0 48 C0 32.16 0 16.32 0 0 Z " fill="#CEE5F3" transform="translate(238,96)"></path><path d="M0 0 C0.66 0 1.32 0 2 0 C0.5328827 3.55736507 -1.3706419 5.44195167 -4.375 7.8125 C-5.14585937 8.43769531 -5.91671875 9.06289062 -6.7109375 9.70703125 C-9 11 -9 11 -11.2890625 10.69921875 C-11.85367187 10.46847656 -12.41828125 10.23773438 -13 10 C-12.34 10 -11.68 10 -11 10 C-10.67 8.68 -10.34 7.36 -10 6 C-8.35 5.67 -6.7 5.34 -5 5 C-4.67 3.68 -4.34 2.36 -4 1 C-2.68 1.33 -1.36 1.66 0 2 C0 1.34 0 0.68 0 0 Z " fill="#1C76BC" transform="translate(301,143)"></path><path d="M0 0 C4.55833544 0.657575 7.94519187 1.77950983 12 4 C9 5 9 5 3 3 C3.33 8.94 3.66 14.88 4 21 C2.35817798 17.71635596 1.72860837 16.29830746 1.3671875 12.890625 C1.28339844 12.13652344 1.19960937 11.38242188 1.11328125 10.60546875 C1.03464844 9.82816406 0.95601562 9.05085937 0.875 8.25 C0.78863281 7.45722656 0.70226562 6.66445312 0.61328125 5.84765625 C0.40199946 3.89916859 0.20007533 1.94967024 0 0 Z " fill="#ADD3EE" transform="translate(184,123)"></path><path d="M0 0 C1.37229722 3.78308964 0.65205608 6.64415244 -0.25 10.5 C-0.50265625 11.6240625 -0.7553125 12.748125 -1.015625 13.90625 C-1.96635083 16.89424547 -2.85013237 18.73931445 -5 21 C-5.66 21 -6.32 21 -7 21 C-6.51966194 16.10055182 -5.56142416 13.13768517 -3 9 C-1.89062553 6.03330176 -0.92993879 3.02724756 0 0 Z " fill="#3C88C3" transform="translate(296,125)"></path><path d="M0 0 C1.5 1.3125 1.5 1.3125 3 3 C3 3.99 3 4.98 3 6 C4.65 6 6.3 6 8 6 C8 6.99 8 7.98 8 9 C11.465 8.505 11.465 8.505 15 8 C12.09907498 9.93395001 11.10325263 10.30131941 7.8125 10.625 C6.554375 10.74875 5.29625 10.8725 4 11 C1.52214277 7.33708062 0.51035831 4.3890815 0 0 Z " fill="#3988C5" transform="translate(281,100)"></path><path d="M0 0 C0.99 0.495 0.99 0.495 2 1 C2.33 2.98 2.66 4.96 3 7 C11.25 7 19.5 7 28 7 C28 7.33 28 7.66 28 8 C23.52084672 8.02886338 19.04171709 8.04675187 14.5625 8.0625 C13.28310547 8.07087891 12.00371094 8.07925781 10.68554688 8.08789062 C8.86313477 8.09272461 8.86313477 8.09272461 7.00390625 8.09765625 C5.87799072 8.10289307 4.7520752 8.10812988 3.59204102 8.11352539 C1 8 1 8 0 7 C-0.04092937 4.66702567 -0.04241723 2.33294775 0 0 Z " fill="#2E80BF" transform="translate(316,142)"></path><path d="M0 0 C1.31052767 4.30422506 0.45785552 7.9370534 -0.4375 12.25 C-0.58509766 12.99507812 -0.73269531 13.74015625 -0.88476562 14.5078125 C-1.2488694 16.34007665 -1.62341409 18.17026053 -2 20 C-1.01 20.33 -0.02 20.66 1 21 C-0.65 20.67 -2.3 20.34 -4 20 C-3.85848172 17.9163691 -3.71162064 15.83310062 -3.5625 13.75 C-3.48128906 12.58984375 -3.40007812 11.4296875 -3.31640625 10.234375 C-3.06752213 7.69022624 -2.71885058 5.44046752 -2 3 C-1.34 3 -0.68 3 0 3 C0 2.01 0 1.02 0 0 Z " fill="#78B1D8" transform="translate(244,236)"></path><path d="M0 0 C2 1 2 1 3 3 C0.03 3.66 -2.94 4.32 -6 5 C-5.835 5.99 -5.67 6.98 -5.5 8 C-4.91525483 12.02732942 -4.92867976 15.93474623 -5 20 C-5.33 20 -5.66 20 -6 20 C-7.12862175 14.63904667 -7.09688221 9.44693314 -7 4 C-1.7265625 0.77734375 -1.7265625 0.77734375 0 0 Z " fill="#4B93C9" transform="translate(300,206)"></path><path d="M0 0 C2.31 0.66 4.62 1.32 7 2 C7 2.66 7 3.32 7 4 C7.66 4 8.32 4 9 4 C9 3.34 9 2.68 9 2 C10.32 1.67 11.64 1.34 13 1 C11.515 3.475 11.515 3.475 10 6 C5.96825194 5.72510809 4.43105369 5.46508424 1.625 2.4375 C0.820625 1.2309375 0.820625 1.2309375 0 0 Z " fill="#297EBD" transform="translate(244,99)"></path><path d="M0 0 C0.66 0 1.32 0 2 0 C1.46719784 4.22489602 0.12321801 6.54080716 -2.5625 9.8125 C-3.20316406 10.60269531 -3.84382813 11.39289063 -4.50390625 12.20703125 C-4.99761719 12.79871094 -5.49132812 13.39039062 -6 14 C-7.125 10.25 -7.125 10.25 -6 8 C-5.01 8 -4.02 8 -3 8 C-3 6.68 -3 5.36 -3 4 C-2.34 4 -1.68 4 -1 4 C-0.67 2.68 -0.34 1.36 0 0 Z " fill="#1A75BC" transform="translate(267,82)"></path><path d="M0 0 C8.58 0 17.16 0 26 0 C25.34 1.65 24.68 3.3 24 5 C23.67 3.68 23.34 2.36 23 1 C15.41 1 7.82 1 0 1 C0 0.67 0 0.34 0 0 Z " fill="#AFCEE6" transform="translate(318,150)"></path><path d="M0 0 C5.28 0.66 10.56 1.32 16 2 C15.67 3.32 15.34 4.64 15 6 C15 5.01 15 4.02 15 3 C9.72 3 4.44 3 -1 3 C-0.67 2.01 -0.34 1.02 0 0 Z " fill="#0874C0" transform="translate(329,146)"></path><path d="M0 0 C2.71675995 0.36712972 4.61063713 0.72744599 6.875 2.3125 C8 4 8 4 7.6875 6.1875 C7.460625 6.785625 7.23375 7.38375 7 8 C5.02 8.33 3.04 8.66 1 9 C1.495 8.54625 1.99 8.0925 2.5 7.625 C4.22609337 6.12364481 4.22609337 6.12364481 4 4 C2.70766393 2.62689293 1.37562854 1.28965176 0 0 Z " fill="#3383C0" transform="translate(335,178)"></path><path d="M0 0 C0.99 0.33 1.98 0.66 3 1 C3.6875 3.0625 3.6875 3.0625 4 5 C1.69 5.66 -0.62 6.32 -3 7 C-1.125 1.125 -1.125 1.125 0 0 Z " fill="#D4EAF8" transform="translate(217,121)"></path><path d="M0 0 C0.66 1.32 1.32 2.64 2 4 C3.5412312 5.70921589 3.5412312 5.70921589 5 7 C4.34 7.66 3.68 8.32 3 9 C1.68 9 0.36 9 -1 9 C-0.67 6.03 -0.34 3.06 0 0 Z " fill="#086EC1" transform="translate(132,284)"></path><path d="M0 0 C0.33 0 0.66 0 1 0 C1.33 2.64 1.66 5.28 2 8 C-1.63 7.01 -5.26 6.02 -9 5 C-5.16380575 4.04095144 -3.67568464 4.08107884 0 5 C0 3.35 0 1.7 0 0 Z " fill="#C3E1F7" transform="translate(293,220)"></path><path d="M0 0 C0.66 0.33 1.32 0.66 2 1 C-0.51830747 4.12270126 -1.7261549 4.94523098 -5.75 5.75 C-7.35875 5.87375 -7.35875 5.87375 -9 6 C-7.73295613 3.46591226 -6.56876843 3.06790028 -4.0625 1.8125 C-3.35222656 1.44769531 -2.64195312 1.08289063 -1.91015625 0.70703125 C-1.27980469 0.47371094 -0.64945312 0.24039063 0 0 Z " fill="#4A90C5" transform="translate(325,192)"></path><path d="M0 0 C6.15234375 0.5859375 6.15234375 0.5859375 8 1 C8.33 1.66 8.66 2.32 9 3 C9.99 3.66 10.98 4.32 12 5 C6.71201818 4.58525633 3.88309282 3.64775386 0 0 Z " fill="#5A98CA" transform="translate(194,126)"></path><path d="M0 0 C1.65 0 3.3 0 5 0 C3.38405168 2.04119788 1.7143618 4.04072937 0 6 C-0.66 6 -1.32 6 -2 6 C-1.34 4.02 -0.68 2.04 0 0 Z " fill="#0C6DBB" transform="translate(730,206)"></path><path d="M0 0 C-1.875 3.875 -1.875 3.875 -3 5 C-4.66617115 5.04063832 -6.33388095 5.042721 -8 5 C-3.16129032 0 -3.16129032 0 0 0 Z " fill="#418CC5" transform="translate(316,198)"></path><path d="M0 0 C0.33 1.32 0.66 2.64 1 4 C0.34 4 -0.32 4 -1 4 C-1 5.98 -1 7.96 -1 10 C-2.32 10.33 -3.64 10.66 -5 11 C-3.55049545 7.2089881 -1.84827434 3.6125362 0 0 Z " fill="#3A86C0" transform="translate(338,161)"></path><path d="M0 0 C3.57104439 1.87949705 5.54744301 3.17053157 7 7 C4.525 6.01 4.525 6.01 2 5 C2 4.34 2 3.68 2 3 C0.68 2.67 -0.64 2.34 -2 2 C-1.34 1.34 -0.68 0.68 0 0 Z " fill="#2577B8" transform="translate(178,159)"></path><path d="M0 0 C0 0.66 0 1.32 0 2 C-4.15267176 5.11450382 -4.15267176 5.11450382 -7.3125 4.6875 C-7.869375 4.460625 -8.42625 4.23375 -9 4 C-2.25 0 -2.25 0 0 0 Z " fill="#4289B9" transform="translate(336,187)"></path><path d="M0 0 C0.33 0.66 0.66 1.32 1 2 C-0.65 3.65 -2.3 5.3 -4 7 C-4.99 6.67 -5.98 6.34 -7 6 C-4.69 4.02 -2.38 2.04 0 0 Z " fill="#0A6FBB" transform="translate(722,185)"></path><path d="M0 0 C0 1.32 0 2.64 0 4 C-1.65 4 -3.3 4 -5 4 C-5.33 3.34 -5.66 2.68 -6 2 C-2.25 0 -2.25 0 0 0 Z " fill="#0D6CC0" transform="translate(736,178)"></path><path d="M0 0 C0.75 1.75 0.75 1.75 1 4 C-0.9375 6.25 -0.9375 6.25 -3 8 C-2.45276317 4.62537285 -1.9451 2.91765 0 0 Z " fill="#3C8AC5" transform="translate(343,152)"></path><path d="M0 0 C0.66 0 1.32 0 2 0 C0.95125002 2.62187494 0.35068687 3.79371361 -2.125 5.25 C-2.74375 5.4975 -3.3625 5.745 -4 6 C-4 4.68 -4 3.36 -4 2 C-2.68 2 -1.36 2 0 2 C0 1.34 0 0.68 0 0 Z " fill="#297AB9" transform="translate(301,143)"></path><path d="M0 0 C1.65 0 3.3 0 5 0 C5 0.66 5 1.32 5 2 C3.37373596 3.38232443 1.7074998 4.71937515 0 6 C0 4.02 0 2.04 0 0 Z " fill="#297DC3" transform="translate(270,77)"></path></svg>